<svg xmlns="http://www.w3.org/2000/svg" width="900" height="600" viewBox="0 0 900 600">
  <rect width="900" height="600" fill="#de2910" />
  <g fill="#ffde00">
    <polygon points="120,60 132,96 170,96 139,118 151,154 120,132 89,154 101,118 70,96 108,96" />
    <polygon points="240,60 246,78 265,78 250,89 256,107 240,96 224,107 230,89 215,78 234,78" />
    <polygon points="288,120 294,138 313,138 298,149 304,167 288,156 272,167 278,149 263,138 282,138" />
    <polygon points="288,210 294,228 313,228 298,239 304,257 288,246 272,257 278,239 263,228 282,228" />
    <polygon points="240,270 246,288 265,288 250,299 256,317 240,306 224,317 230,299 215,288 234,288" />
  </g>
</svg>
