<svg xmlns="http://www.w3.org/2000/svg" width="900" height="600" viewBox="0 0 900 600">
  <rect width="900" height="600" fill="#ffffff" />

  <g transform="translate(450 300)">
    <path d="M 0 -110 A 110 110 0 0 1 0 110 A 55 55 0 0 0 0 0 A 55 55 0 0 1 0 -110" fill="#cd2e3a" />
    <path d="M 0 110 A 110 110 0 0 1 0 -110 A 55 55 0 0 0 0 0 A 55 55 0 0 1 0 110" fill="#0047a0" />
  </g>

  <g fill="#000000">
    <g transform="rotate(-33 220 180)">
      <rect x="170" y="142" width="100" height="14" rx="3" />
      <rect x="170" y="164" width="100" height="14" rx="3" />
      <rect x="170" y="186" width="100" height="14" rx="3" />
    </g>

    <g transform="rotate(33 680 180)">
      <rect x="630" y="142" width="100" height="14" rx="3" />
      <rect x="630" y="164" width="42" height="14" rx="3" />
      <rect x="688" y="164" width="42" height="14" rx="3" />
      <rect x="630" y="186" width="100" height="14" rx="3" />
    </g>

    <g transform="rotate(33 220 420)">
      <rect x="170" y="382" width="42" height="14" rx="3" />
      <rect x="228" y="382" width="42" height="14" rx="3" />
      <rect x="170" y="404" width="100" height="14" rx="3" />
      <rect x="170" y="426" width="42" height="14" rx="3" />
      <rect x="228" y="426" width="42" height="14" rx="3" />
    </g>

    <g transform="rotate(-33 680 420)">
      <rect x="630" y="382" width="42" height="14" rx="3" />
      <rect x="688" y="382" width="42" height="14" rx="3" />
      <rect x="630" y="404" width="42" height="14" rx="3" />
      <rect x="688" y="404" width="42" height="14" rx="3" />
      <rect x="630" y="426" width="42" height="14" rx="3" />
      <rect x="688" y="426" width="42" height="14" rx="3" />
    </g>
  </g>
</svg>
